# FreeCAD v0.20 build2 Arch module
# http://www.freecadweb.org
mtllib Lack_Table.mtl
o Body
usemtl color_ffffff
v 0.0 0.0 0.0
v 0.0 0.0 50.0
v 0.0 550.0 0.0
v 0.0 550.0 50.0
v 550.0 0.0 50.0
v 550.0 0.0 0.0
v 550.0 550.0 0.0
v 550.0 550.0 50.0
vn -1.0 0.0 0.0
vn -1.0 0.0 0.0
vn 1.0 0.0 0.0
vn 1.0 -0.0 0.0
vn 0.0 -1.0 0.0
vn 0.0 -1.0 0.0
vn 0.0 1.0 0.0
vn 0.0 1.0 0.0
vn 0.0 0.0 -1.0
vn 0.0 0.0 -1.0
vn 0.0 0.0 1.0
vn 0.0 0.0 1.0
f 1//1 2//1 3//1 
f 3//2 2//2 4//2 
f 5//3 6//3 7//3 
f 5//4 7//4 8//4 
f 6//5 5//5 1//5 
f 1//6 5//6 2//6 
f 8//7 7//7 3//7 
f 8//8 3//8 4//8 
f 3//9 7//9 1//9 
f 1//10 7//10 6//10 
f 8//11 4//11 2//11 
f 8//12 2//12 5//12 
o Body002
usemtl color_ffffff
v 0.0 500.0 0.0
v 50.0 500.0 -400.0
v 50.0 500.0 0.0
v 0.0 500.0 -400.0
v 50.0 550.0 -400.0
v -0.0 550.0 0.0
v 50.0 550.0 0.0
v -0.0 550.0 -400.0
vn 0.0 -1.0 0.0
vn 0.0 -1.0 0.0
vn 0.0 1.0 -0.0
vn 0.0 1.0 0.0
vn -1.0 -4.3999999947851487e-16 0.0
vn -1.0 -4.3999999947851487e-16 -0.0
vn 1.0 0.0 0.0
vn 1.0 0.0 -0.0
vn 0.0 -0.0 1.0
vn 0.0 -0.0 1.0
vn 0.0 -0.0 -1.0
vn -0.0 0.0 -1.0
f 9//13 10//13 11//13 
f 9//14 12//14 10//14 
f 13//15 14//15 15//15 
f 16//16 14//16 13//16 
f 14//17 12//17 9//17 
f 14//18 16//18 12//18 
f 10//19 15//19 11//19 
f 13//20 15//20 10//20 
f 11//21 15//21 9//21 
f 9//22 15//22 14//22 
f 13//23 10//23 12//23 
f 13//24 12//24 16//24 
o Body003
usemtl color_ffffff
v 500.0 0.0 0.0
v 550.0 0.0 -400.0
v 550.0 0.0 0.0
v 500.0 0.0 -400.0
v 550.0 50.0 -400.0
v 500.0 50.0 0.0
v 550.0 50.0 0.0
v 500.0 50.0 -400.0
vn 4.3999999947851487e-16 -1.0 0.0
vn 4.3999999947851487e-16 -1.0 0.0
vn 0.0 1.0 -0.0
vn 0.0 1.0 0.0
vn -1.0 -0.0 0.0
vn -1.0 0.0 -0.0
vn 1.0 0.0 0.0
vn 1.0 0.0 -0.0
vn 0.0 -0.0 1.0
vn 0.0 0.0 1.0
vn 0.0 -0.0 -1.0
vn -0.0 0.0 -1.0
f 17//25 18//25 19//25 
f 17//26 20//26 18//26 
f 21//27 22//27 23//27 
f 24//28 22//28 21//28 
f 22//29 20//29 17//29 
f 22//30 24//30 20//30 
f 18//31 23//31 19//31 
f 21//32 23//32 18//32 
f 19//33 23//33 17//33 
f 17//34 23//34 22//34 
f 21//35 18//35 20//35 
f 21//36 20//36 24//36 
o Body004
usemtl color_ffffff
v 500.0 500.0 0.0
v 550.0 500.0 -400.0
v 550.0 500.0 0.0
v 500.0 500.0 -400.0
v 550.0 550.0 -400.0
v 500.0 550.0 0.0
v 550.0 550.0 0.0
v 500.0 550.0 -400.0
vn 0.0 -1.0 0.0
vn 0.0 -1.0 0.0
vn 0.0 1.0 -0.0
vn 0.0 1.0 0.0
vn -1.0 -0.0 0.0
vn -1.0 0.0 -0.0
vn 1.0 0.0 0.0
vn 1.0 0.0 -0.0
vn 0.0 -0.0 1.0
vn 0.0 0.0 1.0
vn 0.0 -0.0 -1.0
vn -0.0 0.0 -1.0
f 25//37 26//37 27//37 
f 25//38 28//38 26//38 
f 29//39 30//39 31//39 
f 32//40 30//40 29//40 
f 30//41 28//41 25//41 
f 30//42 32//42 28//42 
f 26//43 31//43 27//43 
f 29//44 31//44 26//44 
f 27//45 31//45 25//45 
f 25//46 31//46 30//46 
f 29//47 26//47 28//47 
f 29//48 28//48 32//48 
