<?xml version="1.0" standalone="no"?>
<!DOCTYPE svg PUBLIC "-//W3C//DTD SVG 20010904//EN"
 "http://www.w3.org/TR/2001/REC-SVG-20010904/DTD/svg10.dtd">
<svg version="1.0" xmlns="http://www.w3.org/2000/svg"
 width="900.000000pt" height="900.000000pt" viewBox="0 0 900.000000 900.000000"
 preserveAspectRatio="xMidYMid meet">
<metadata>
Created by potrace 1.10, written by Peter Selinger 2001-2011
</metadata>
<g transform="translate(0.000000,900.000000) scale(0.100000,-0.100000)"
fill="#000000" stroke="none">
<path d="M4045 7900 c-4 -6 5 -31 19 -56 31 -56 32 -83 6 -126 -14 -23 -16
-35 -8 -45 15 -18 37 -16 45 5 4 9 10 20 15 23 13 9 21 74 14 113 -4 19 -20
49 -37 66 -32 32 -44 36 -54 20z"/>
<path d="M3807 7882 c-32 -4 -54 -37 -37 -57 6 -7 20 -11 30 -8 14 4 20 0 20
-11 0 -10 -9 -16 -25 -16 -16 0 -25 -6 -25 -16 0 -13 8 -15 41 -12 39 4 40 3
37 -27 -2 -24 1 -30 17 -30 15 0 21 8 23 32 4 37 32 55 32 19 0 -52 76 -77 99
-32 8 15 10 29 5 38 -5 7 -9 22 -9 33 0 27 -54 34 -72 9 -12 -17 -13 -16 -13
5 0 12 7 29 15 38 13 12 13 18 3 30 -11 13 -15 11 -35 -13 -13 -16 -23 -39
-23 -51 0 -13 -4 -23 -10 -23 -16 0 -31 38 -24 63 6 27 -6 35 -49 29z"/>
<path d="M3271 7834 c-31 -39 -30 -141 2 -177 41 -48 85 -23 46 26 -24 31 -26
103 -3 128 18 20 12 49 -10 49 -8 0 -24 -12 -35 -26z"/>
<path d="M3374 7845 c-8 -21 5 -36 29 -34 59 4 61 -9 12 -58 -40 -40 -45 -80
-10 -75 11 2 35 4 52 5 18 2 38 8 44 14 13 13 4 33 -17 33 -19 0 -18 26 1 34
23 8 20 73 -4 86 -30 15 -101 13 -107 -5z"/>
<path d="M3568 7849 c-22 -12 -23 -32 -3 -49 19 -16 19 -66 0 -74 -9 -3 -12
-12 -9 -21 9 -23 107 -17 112 6 2 10 -5 19 -17 22 -17 4 -20 15 -23 63 -3 50
-6 59 -23 61 -11 2 -28 -2 -37 -8z"/>
<path d="M2595 7821 c-25 -5 -31 -12 -33 -39 -4 -40 12 -62 41 -59 16 1 23 -4
25 -20 3 -20 -1 -23 -28 -23 -34 0 -52 -26 -29 -41 19 -13 76 -2 100 19 37 32
16 94 -35 103 -11 2 -21 10 -24 18 -3 10 0 12 12 8 24 -9 66 2 66 18 0 7 -10
15 -22 19 -26 6 -31 6 -73 -3z"/>
<path d="M6484 7806 c-24 -38 -15 -70 21 -74 17 -2 34 -8 40 -13 16 -16 -14
-27 -56 -22 -31 5 -39 2 -39 -10 0 -18 48 -47 77 -47 10 0 28 9 41 18 34 26
28 82 -11 100 -36 17 -26 32 18 25 30 -5 35 -3 35 14 0 16 -9 22 -37 27 -61
10 -72 7 -89 -18z"/>
<path d="M2417 7813 c-27 -4 -28 -6 -25 -56 3 -51 3 -51 38 -52 24 0 35 -5 35
-15 0 -10 -10 -15 -32 -15 -35 0 -59 -17 -49 -34 13 -20 94 -13 117 10 26 26
22 70 -9 85 -22 11 -22 11 -2 29 11 10 20 26 20 37 0 19 -23 21 -93 11z"/>
<path d="M2831 7793 c-55 -23 -67 -87 -24 -128 42 -39 93 -29 93 18 0 14 -6
18 -27 15 -24 -3 -28 1 -31 25 -3 24 0 27 28 27 27 0 31 3 28 23 -3 22 -36 33
-67 20z"/>
<path d="M2963 7792 l-33 -3 0 -59 c0 -61 7 -74 34 -64 13 5 15 14 10 40 -3
18 -3 38 1 43 10 17 46 -6 39 -24 -9 -23 5 -65 21 -65 16 0 25 30 22 70 -1 16
3 25 13 25 10 0 16 -13 18 -41 2 -31 8 -43 22 -47 11 -3 23 0 29 7 12 15 1
116 -13 118 -23 3 -132 3 -163 0z"/>
<path d="M6647 7754 c-8 -45 -3 -54 28 -54 28 0 38 -12 29 -35 -4 -11 -13 -15
-25 -11 -11 3 -28 9 -39 12 -15 5 -20 2 -20 -14 0 -28 23 -44 66 -45 28 -1 42
5 60 27 29 33 30 52 4 66 -26 14 -26 30 1 30 16 0 20 5 17 28 -3 25 -6 27 -59
30 l-56 3 -6 -37z"/>
<path d="M5685 7714 c-9 -14 -26 -17 -97 -15 -52 1 -96 -3 -109 -10 -15 -8
-122 -14 -313 -19 -160 -5 -316 -13 -346 -18 -30 -6 -163 -11 -295 -11 -182
-1 -252 -5 -289 -16 -38 -12 -106 -15 -295 -15 -189 0 -257 -4 -295 -15 -38
-12 -107 -15 -306 -15 -199 0 -268 -3 -306 -15 -38 -11 -107 -15 -301 -15
-167 0 -261 -4 -280 -12 -17 -7 -144 -14 -333 -19 -168 -4 -339 -12 -380 -18
-41 -5 -173 -10 -292 -10 -136 -1 -227 -5 -245 -12 -15 -6 -84 -14 -153 -16
-108 -5 -127 -3 -139 11 -14 17 -51 22 -51 7 0 -5 -10 -11 -22 -13 -36 -5 -34
-34 3 -52 40 -20 66 -20 77 -1 7 13 36 16 158 19 82 2 181 9 219 14 39 6 168
11 287 11 159 1 232 5 275 16 43 11 117 15 309 15 198 0 261 3 294 15 34 12
98 15 309 15 212 1 271 4 291 15 20 11 81 14 302 15 185 0 286 4 305 12 17 7
140 14 318 19 160 4 324 12 365 18 41 5 175 10 298 10 159 1 230 5 245 14 16
8 108 14 312 18 160 3 308 10 330 16 22 6 64 13 92 15 45 4 53 2 58 -13 4 -13
16 -19 36 -19 16 0 29 4 29 8 0 5 10 13 23 19 18 8 27 6 47 -14 26 -24 45 -29
55 -14 8 14 107 1 127 -16 11 -10 37 -15 77 -14 42 0 65 -4 75 -15 11 -10 38
-16 82 -18 41 -1 68 -7 74 -15 5 -9 28 -13 66 -13 35 0 68 -5 81 -14 12 -8 46
-14 76 -14 36 0 59 -5 67 -15 8 -10 31 -15 69 -15 36 0 65 -6 80 -16 16 -12
42 -16 81 -15 41 1 61 -3 70 -14 8 -10 31 -15 70 -15 39 0 62 -5 70 -15 9 -10
32 -15 75 -15 43 0 66 -5 75 -15 9 -11 32 -15 80 -15 48 0 71 -4 80 -15 9 -10
32 -15 75 -15 47 0 64 -4 69 -15 4 -11 21 -15 58 -15 29 0 66 -7 82 -15 16 -8
54 -15 87 -15 44 0 61 -4 65 -15 5 -11 23 -15 75 -15 53 0 71 -4 75 -15 5 -11
23 -15 75 -15 53 0 71 -4 75 -15 5 -11 22 -15 63 -15 35 0 65 -6 77 -15 10 -8
41 -15 69 -15 28 0 63 -7 79 -15 15 -8 49 -15 75 -15 26 0 56 -7 69 -15 24
-18 150 -18 155 0 1 6 -25 12 -59 15 -34 3 -68 11 -76 18 -8 6 -44 13 -78 15
-38 2 -65 8 -68 15 -2 7 -26 12 -61 12 -35 0 -65 6 -77 15 -12 9 -43 14 -85
15 -47 0 -70 4 -79 15 -8 10 -31 15 -71 15 -38 0 -63 5 -73 15 -9 9 -33 15
-63 15 -26 0 -61 7 -77 15 -16 9 -55 15 -91 15 -47 0 -64 4 -69 15 -4 11 -22
15 -76 15 -54 0 -72 4 -76 15 -5 11 -22 15 -68 15 -38 1 -68 6 -80 15 -12 9
-42 15 -72 15 -34 0 -56 5 -64 15 -9 10 -32 15 -74 15 -38 1 -68 6 -80 15 -12
9 -42 15 -77 15 -38 0 -61 5 -69 15 -9 10 -32 15 -75 15 -43 0 -66 5 -75 15
-9 10 -32 15 -75 15 -43 0 -66 5 -75 15 -8 10 -31 15 -70 15 -39 0 -62 5 -70
15 -8 10 -30 15 -64 15 -28 0 -63 7 -79 14 -15 8 -53 16 -85 17 -31 2 -64 9
-73 16 -8 7 -44 15 -80 19 -35 3 -69 11 -76 16 -7 5 -37 8 -68 6 -52 -3 -55
-2 -55 21 0 23 -2 24 -58 18 -41 -5 -66 -2 -86 8 -36 19 -49 19 -61 -1z"/>
<path d="M6872 7687 c-22 -23 -29 -71 -14 -93 4 -6 22 -16 41 -22 29 -10 37
-9 52 4 16 14 18 14 29 -6 7 -14 19 -20 33 -18 17 2 23 11 27 43 3 27 10 40
20 40 12 0 14 -10 12 -46 -5 -74 29 -78 52 -7 15 45 31 33 31 -22 0 -33 4 -45
16 -48 12 -2 21 11 33 47 21 65 21 68 -9 87 -19 12 -29 13 -38 5 -10 -8 -19
-7 -33 3 -11 8 -41 17 -66 21 l-47 7 -6 -36 c-4 -20 -11 -39 -16 -42 -16 -9
-80 8 -86 24 -9 21 25 44 47 32 20 -11 30 -4 30 21 0 36 -76 40 -108 6z"/>
<path d="M7345 7636 c-33 -38 -42 -63 -44 -114 -1 -35 24 -88 45 -96 24 -9 34
18 19 48 -8 16 -15 39 -15 52 0 26 26 74 47 87 7 4 13 19 13 32 0 36 -29 32
-65 -9z"/>
<path d="M7457 7618 c-8 -28 -1 -38 27 -38 12 0 26 -3 29 -7 11 -10 -34 -53
-55 -53 -10 0 -24 -12 -30 -26 -14 -31 0 -44 48 -44 16 0 35 -5 41 -11 6 -6
16 -8 22 -5 17 11 13 44 -6 55 -16 8 -15 12 10 35 41 38 35 74 -18 102 -39 20
-62 17 -68 -8z"/>
<path d="M5786 7615 c-3 -9 -6 -46 -6 -81 0 -50 3 -64 15 -64 12 0 15 14 15
68 0 70 -12 108 -24 77z"/>
<path d="M7628 7583 c-22 -6 -23 -29 -2 -37 10 -4 14 -16 12 -38 -2 -25 -10
-36 -32 -47 -28 -13 -28 -14 -11 -27 10 -8 31 -14 46 -14 15 0 31 -4 34 -10 3
-5 10 -10 16 -10 13 0 11 54 -3 68 -8 8 -8 15 0 24 6 7 12 31 14 53 3 38 2 40
-27 42 -16 0 -38 -1 -47 -4z"/>
<path d="M7853 7553 c-7 -2 -13 -18 -13 -34 0 -16 -4 -29 -10 -29 -15 0 -12
-17 7 -40 10 -11 28 -20 40 -20 27 0 29 -7 8 -30 -13 -15 -14 -19 -1 -29 12
-10 20 -5 43 23 36 46 67 51 43 7 -15 -29 15 -63 53 -59 31 3 32 4 35 61 l3
57 -31 0 c-30 0 -42 21 -20 35 15 9 12 22 -7 29 -17 7 -71 -47 -74 -74 0 -8
-5 1 -9 20 -7 27 -5 39 7 53 9 9 14 19 12 21 -8 7 -74 14 -86 9z"/>
<path d="M8123 7488 c4 -18 9 -46 12 -63 5 -23 0 -40 -24 -75 -17 -25 -31 -50
-31 -56 0 -24 30 -23 52 1 46 48 50 57 55 113 4 48 2 61 -17 85 -31 39 -54 36
-47 -5z"/>
<path d="M5670 7399 c-47 -5 -218 -13 -380 -18 -162 -6 -308 -15 -324 -21 -16
-5 -119 -10 -230 -11 -111 0 -241 -5 -291 -10 -49 -5 -218 -13 -375 -18 -157
-5 -305 -14 -330 -20 -25 -6 -126 -11 -225 -12 -99 -1 -227 -5 -285 -10 -58
-5 -238 -13 -400 -19 -162 -5 -311 -14 -330 -19 -19 -6 -120 -11 -225 -12
-104 0 -230 -5 -280 -10 -49 -5 -226 -13 -392 -18 -166 -6 -310 -14 -320 -19
-10 -5 -121 -13 -248 -17 -156 -5 -232 -11 -237 -18 -9 -14 -11 -4641 -2
-4673 3 -11 17 -26 32 -32 30 -14 112 -58 167 -91 37 -22 138 -30 149 -12 3 4
64 10 137 13 75 3 135 10 142 17 6 6 21 11 33 11 12 0 27 6 33 14 8 10 11 526
11 2012 l0 1999 22 -3 c12 -1 25 -7 28 -13 4 -5 24 -12 46 -16 21 -3 48 -12
59 -19 11 -8 33 -14 50 -14 16 0 39 -7 49 -15 11 -8 34 -15 50 -15 17 0 40 -7
50 -15 11 -8 34 -15 50 -15 17 0 40 -7 50 -15 11 -8 34 -15 50 -15 17 0 40 -7
50 -15 11 -8 34 -15 50 -15 17 0 40 -7 50 -15 11 -8 30 -15 42 -15 12 0 35 -7
50 -15 16 -8 40 -15 54 -15 14 0 34 -7 44 -15 11 -8 32 -15 47 -15 15 0 40 -7
55 -15 16 -8 39 -15 50 -15 12 0 35 -7 50 -15 16 -8 40 -15 54 -15 14 0 34 -7
44 -15 11 -8 34 -15 50 -15 17 0 40 -7 50 -15 11 -8 34 -15 51 -15 17 0 35 -4
41 -10 5 -5 26 -13 47 -17 l38 -8 0 -2355 c-1 -2232 0 -2356 17 -2376 18 -21
26 -26 119 -74 26 -14 54 -31 61 -37 7 -7 19 -13 26 -13 8 0 19 -7 26 -15 15
-18 149 -20 220 -4 25 6 92 14 149 19 57 4 113 13 125 18 11 6 29 13 39 16 16
5 17 128 17 2386 l0 2380 128 1 c70 0 170 5 222 10 52 5 207 13 344 19 136 5
262 14 279 19 16 6 100 11 186 11 86 1 201 5 256 11 203 20 300 26 308 20 4
-4 7 -692 7 -1528 l0 -1521 26 -21 c15 -12 34 -21 43 -21 9 0 25 -7 35 -15 11
-8 28 -15 39 -15 10 0 25 -7 33 -15 9 -8 26 -15 40 -15 13 0 24 -4 24 -10 0
-17 66 -22 131 -10 35 7 115 15 177 18 104 6 116 9 133 31 19 23 20 55 19
1590 l-1 1566 63 8 c35 4 168 11 297 16 128 5 261 14 295 20 33 5 161 12 282
15 122 3 234 10 248 16 15 5 100 10 189 11 89 0 203 5 252 10 147 16 235 24
243 22 4 -2 6 -970 4 -2153 l-2 -2149 57 -27 c32 -14 70 -33 85 -40 14 -8 34
-14 43 -14 9 0 23 -7 31 -15 9 -8 26 -15 40 -15 13 0 24 -5 24 -11 0 -7 22 -9
68 -5 219 17 296 26 305 35 6 6 32 11 57 11 25 0 54 6 63 12 15 12 16 212 18
2490 2 1363 0 2481 -4 2484 -8 8 -76 22 -158 32 -31 4 -64 13 -72 20 -9 7 -42
16 -74 19 -32 2 -72 11 -90 19 -17 8 -49 14 -71 14 -22 0 -53 7 -68 15 -16 8
-49 15 -75 15 -25 0 -50 5 -56 11 -5 5 -37 13 -69 16 -32 2 -73 11 -91 19 -17
8 -51 14 -75 14 -24 0 -49 5 -55 11 -5 5 -37 13 -69 16 -32 2 -73 11 -91 19
-17 8 -49 14 -71 14 -22 0 -53 7 -68 15 -16 8 -49 15 -75 15 -25 0 -50 5 -56
11 -5 5 -37 13 -69 16 -32 2 -73 11 -91 19 -17 8 -51 14 -75 14 -24 0 -49 5
-55 11 -5 5 -37 13 -69 16 -32 2 -73 11 -91 19 -17 8 -49 14 -71 14 -22 0 -53
7 -68 15 -16 8 -50 15 -75 15 -26 0 -60 7 -75 15 -16 8 -49 15 -75 15 -25 0
-50 5 -56 11 -6 6 -39 13 -74 16 -35 3 -67 10 -70 15 -3 5 -32 12 -65 14 -32
3 -73 12 -91 20 -17 8 -51 14 -76 14 -25 0 -58 7 -73 15 -16 8 -48 15 -70 15
-23 0 -55 7 -70 15 -16 8 -49 15 -74 15 -26 0 -50 4 -55 9 -16 14 -75 18 -165
10z m136 -54 c16 -8 49 -15 75 -15 25 0 50 -5 55 -10 6 -6 35 -13 65 -16 30
-3 71 -12 92 -20 20 -8 55 -14 76 -14 21 0 52 -7 67 -15 16 -8 48 -15 70 -15
23 0 58 -7 77 -15 20 -8 56 -15 80 -15 24 0 48 -5 54 -11 5 -5 37 -13 69 -16
32 -3 64 -10 71 -15 7 -6 41 -12 75 -15 35 -3 68 -10 75 -15 7 -6 41 -12 75
-15 35 -3 66 -10 69 -15 3 -5 32 -12 65 -14 32 -3 73 -12 91 -20 17 -8 49 -14
71 -14 22 0 56 -7 75 -15 20 -8 52 -15 70 -15 19 0 51 -7 70 -15 20 -8 56 -15
80 -15 24 0 48 -5 54 -11 5 -5 37 -13 69 -16 32 -2 73 -11 91 -19 17 -8 51
-14 75 -14 24 0 49 -5 55 -11 5 -5 37 -13 69 -16 32 -2 73 -11 91 -19 17 -8
49 -14 71 -14 22 0 56 -7 75 -15 20 -8 56 -15 80 -15 24 0 48 -5 54 -11 6 -6
41 -14 77 -16 37 -3 69 -10 72 -14 3 -5 22 -9 43 -9 67 0 101 -11 101 -31 0
-18 -11 -19 -192 -20 -106 -1 -240 -5 -298 -10 -58 -5 -228 -13 -377 -19 -151
-5 -281 -14 -292 -20 -11 -6 -93 -10 -193 -11 -95 0 -213 -5 -263 -10 -49 -5
-209 -13 -355 -18 -146 -6 -283 -14 -305 -20 -22 -5 -150 -12 -285 -15 -141
-2 -257 -9 -273 -15 -16 -6 -105 -11 -210 -12 -100 0 -218 -5 -262 -10 -44 -5
-200 -13 -347 -18 -147 -6 -284 -15 -305 -20 -21 -6 -114 -11 -208 -12 -93 0
-210 -5 -260 -10 -49 -5 -205 -13 -345 -18 -140 -5 -275 -14 -300 -20 -26 -6
-102 -11 -171 -12 -104 -2 -130 1 -150 14 -13 9 -35 17 -50 17 -15 0 -40 7
-55 15 -16 8 -42 15 -59 15 -16 0 -39 7 -49 15 -11 8 -37 15 -57 15 -21 0 -39
5 -41 11 -2 5 -24 13 -48 16 -25 3 -54 12 -65 19 -11 8 -35 14 -55 14 -19 0
-44 7 -54 15 -11 8 -32 15 -47 15 -15 0 -40 7 -55 15 -16 8 -42 15 -59 15 -16
0 -39 7 -49 15 -11 8 -37 15 -57 15 -21 0 -39 5 -41 11 -2 5 -24 13 -48 16
-25 3 -54 12 -65 19 -11 8 -35 14 -55 14 -19 0 -44 7 -54 15 -11 8 -32 15 -47
15 -15 0 -40 7 -55 15 -16 8 -42 15 -59 15 -16 0 -39 7 -49 15 -11 8 -37 15
-57 15 -21 0 -39 5 -41 10 -2 6 -21 13 -43 16 -22 3 -54 12 -72 20 -17 8 -44
14 -60 14 -15 0 -37 7 -47 15 -11 8 -32 15 -47 15 -15 0 -40 7 -55 15 -16 8
-41 15 -55 15 -15 0 -40 7 -55 15 -16 8 -41 15 -55 15 -15 0 -40 7 -55 15 -16
8 -40 15 -54 15 -15 0 -30 4 -35 9 -6 6 -32 13 -60 16 -27 4 -54 11 -60 16 -5
5 -26 9 -46 9 -41 0 -61 15 -32 24 10 2 111 5 224 5 115 0 218 5 233 11 15 5
111 10 214 11 103 1 232 5 287 10 55 5 233 13 395 18 162 6 313 14 335 20 22
5 164 12 315 15 159 3 287 9 303 15 16 6 112 11 225 12 108 0 238 5 287 10 50
5 223 13 386 19 163 5 308 14 323 20 15 5 114 10 219 11 106 1 239 5 297 10
58 5 231 13 385 18 154 6 298 14 320 19 57 14 69 14 101 -3z m-4879 -265 c21
-11 50 -20 65 -20 14 0 28 -5 30 -10 2 -6 21 -13 43 -16 22 -3 54 -12 72 -20
17 -8 44 -14 60 -14 15 0 37 -7 47 -15 11 -8 32 -15 47 -15 15 0 40 -7 55 -15
16 -8 39 -15 50 -15 12 0 35 -7 50 -15 16 -8 41 -15 55 -15 15 0 40 -7 55 -15
16 -8 43 -15 59 -15 17 0 39 -7 49 -15 11 -8 37 -15 57 -15 21 0 39 -5 41 -10
2 -6 21 -13 43 -16 22 -3 54 -12 72 -20 17 -8 44 -14 60 -14 15 0 37 -7 47
-15 11 -8 32 -15 47 -15 15 0 40 -7 55 -15 16 -8 43 -15 59 -15 17 0 39 -7 49
-15 11 -8 32 -15 47 -15 15 0 40 -7 55 -15 16 -8 43 -15 59 -15 17 0 39 -7 49
-15 11 -8 36 -15 55 -15 20 0 45 -7 55 -15 11 -8 32 -15 47 -15 15 0 40 -7 55
-15 16 -8 43 -15 59 -15 17 0 39 -7 49 -15 11 -8 32 -15 47 -15 15 0 40 -7 55
-15 16 -8 41 -15 55 -15 15 0 40 -7 55 -15 16 -8 39 -15 50 -15 12 0 35 -7 50
-15 16 -8 45 -15 65 -15 19 0 39 -4 45 -9 5 -5 17 -11 27 -13 16 -3 18 -21 19
-250 1 -136 -1 -251 -5 -254 -4 -4 -15 0 -26 10 -10 9 -36 20 -57 23 -22 3
-42 10 -45 15 -3 5 -23 11 -45 14 -21 3 -53 12 -71 20 -17 8 -38 14 -46 14 -8
0 -28 7 -43 15 -16 8 -40 15 -54 15 -14 0 -34 7 -44 15 -11 8 -34 15 -50 15
-17 0 -40 7 -50 15 -11 8 -34 15 -50 15 -17 0 -40 7 -50 15 -11 8 -34 15 -50
15 -17 0 -40 7 -50 15 -11 8 -34 15 -50 15 -17 0 -40 7 -50 15 -11 8 -34 15
-50 15 -17 0 -40 7 -50 15 -11 8 -34 15 -50 15 -17 0 -40 7 -50 15 -11 8 -34
15 -50 15 -17 0 -40 7 -50 15 -11 8 -35 15 -53 15 -18 0 -33 4 -33 10 0 5 -17
12 -37 15 -21 4 -52 13 -70 21 -17 8 -42 14 -55 14 -12 0 -32 7 -42 15 -11 8
-32 15 -47 15 -15 0 -40 7 -55 15 -16 8 -39 15 -50 15 -12 0 -35 7 -50 15 -16
8 -42 15 -59 15 -16 0 -39 7 -49 15 -11 8 -31 15 -45 15 -14 0 -35 7 -45 15
-11 8 -34 15 -50 15 -17 0 -40 7 -50 15 -11 8 -32 15 -47 15 -15 0 -40 7 -55
15 -16 8 -41 15 -56 15 -15 0 -29 4 -32 9 -4 5 -25 12 -49 16 -23 4 -51 14
-62 21 -11 8 -31 14 -46 14 -15 0 -39 6 -54 14 l-28 15 1 213 c0 117 1 216 1
221 2 14 51 7 88 -13z m7844 -585 c0 -126 -1 -235 -1 -241 0 -8 -70 -13 -222
-17 -123 -3 -248 -10 -278 -16 -30 -5 -156 -12 -280 -15 -124 -3 -239 -10
-255 -15 -17 -5 -136 -12 -265 -14 -129 -3 -248 -10 -263 -16 -16 -6 -104 -11
-200 -12 -95 0 -203 -4 -242 -10 -38 -5 -186 -14 -329 -19 -142 -5 -264 -14
-270 -18 -6 -5 -124 -12 -263 -15 -147 -3 -260 -10 -272 -16 -11 -7 -89 -11
-183 -12 -90 0 -203 -5 -253 -10 -49 -5 -207 -13 -350 -19 -143 -6 -264 -15
-269 -20 -6 -6 -84 -10 -186 -11 -96 0 -215 -5 -265 -10 -49 -5 -193 -13 -320
-19 -126 -5 -259 -14 -295 -19 -36 -6 -112 -11 -169 -13 l-104 -3 1 248 1 248
148 3 c81 2 177 9 213 14 36 6 171 13 301 16 130 3 249 10 263 16 15 5 105 10
199 11 95 0 215 5 267 10 52 5 211 13 352 19 142 5 275 14 295 19 21 6 112 11
203 12 91 1 210 5 265 10 55 5 222 14 372 19 150 5 281 13 291 19 11 6 101 11
203 12 101 1 218 6 259 10 41 5 199 13 350 19 151 5 288 14 304 20 16 5 106
10 200 11 94 1 216 5 271 10 55 5 211 14 346 19 135 5 256 14 270 19 13 6 55
9 92 8 l69 -2 -1 -230z m-7911 105 c0 -5 17 -12 38 -15 20 -4 46 -10 57 -15
11 -5 29 -11 40 -14 20 -6 20 -14 20 -2043 0 -1121 3 -2055 7 -2076 6 -34 5
-37 -18 -37 -13 0 -24 4 -24 9 0 5 -12 14 -27 20 -16 6 -46 22 -68 35 l-40 24
-5 2048 c-3 1127 -3 2055 -1 2062 4 14 21 16 21 2z m288 -91 c2 -5 20 -11 40
-15 20 -3 51 -12 69 -20 17 -8 42 -14 55 -14 13 0 29 -5 34 -10 6 -6 30 -14
55 -18 l44 -8 3 -1994 c2 -1588 0 -1995 -10 -2002 -7 -4 -25 -8 -40 -8 -15 0
-29 -4 -32 -9 -3 -4 -59 -10 -124 -13 -64 -3 -127 -10 -139 -16 -11 -6 -23 -8
-27 -5 -8 8 -8 4138 0 4146 8 8 68 -4 72 -14z m7600 -2493 c1 -1517 -1 -2182
-8 -2186 -6 -4 -32 -8 -57 -9 -26 -1 -51 -5 -57 -10 -6 -5 -58 -11 -115 -14
-57 -3 -108 -10 -114 -16 -38 -38 -37 -92 -37 2187 0 1208 4 2203 8 2209 7 11
219 21 357 18 20 0 20 -8 23 -2179z m-445 -34 c1 -1449 -1 -2182 -8 -2183 -21
-3 -38 3 -52 17 -8 8 -23 14 -34 14 -11 0 -27 7 -35 15 -9 8 -25 15 -37 15
-12 0 -32 8 -44 18 l-23 17 -2 2133 c-2 1172 1 2133 5 2135 4 1 57 2 117 2
l110 0 3 -2183z m-2207 2059 c5 -6 7 -590 4 -1568 l-5 -1558 -121 -6 c-66 -4
-130 -11 -142 -18 -11 -6 -33 -11 -49 -11 l-28 0 2 1572 c2 865 3 1576 3 1580
0 4 69 9 153 11 83 1 157 4 163 5 5 1 14 -2 20 -7z m-384 -1566 c0 -850 1
-1551 2 -1557 1 -18 -62 -12 -81 7 -8 8 -23 15 -34 15 -11 0 -27 7 -35 15 -9
8 -24 15 -35 15 -19 0 -19 25 -19 1518 0 835 3 1522 7 1525 3 4 48 7 100 7
l93 0 2 -1545z m-2666 1460 c16 -8 39 -15 52 -15 12 0 32 -5 45 -12 12 -6 28
-14 35 -17 8 -3 13 -9 13 -13 -1 -5 -1 -1073 -1 -2375 0 -2292 -1 -2366 -18
-2350 -10 10 -24 17 -30 17 -7 0 -12 4 -12 10 0 5 -11 12 -25 16 -14 3 -25 10
-25 14 0 4 -12 13 -27 19 -16 7 -40 19 -55 27 l-28 15 0 2324 c0 1278 -3 2330
-6 2339 -8 21 43 22 82 1z m624 -2379 l0 -2364 -32 -6 c-18 -4 -81 -11 -140
-16 -59 -5 -115 -13 -125 -18 -10 -6 -44 -12 -76 -13 l-57 -4 0 2378 0 2378
172 3 c95 2 184 9 198 14 14 6 33 11 43 11 16 1 17 -118 17 -2363z"/>
<path d="M797 7374 c-12 -44 -18 -96 -12 -114 8 -25 35 -26 36 -2 4 85 -12
161 -24 116z"/>
<path d="M423 7148 c-2 -5 3 -8 11 -8 24 0 29 -18 12 -42 -23 -33 -20 -57 9
-64 33 -8 75 3 75 20 0 8 -4 16 -9 18 -12 4 -19 52 -8 57 4 1 39 0 77 -4 70
-7 108 4 94 27 -7 11 -253 7 -261 -4z"/>
<path d="M8703 7112 c-15 -20 -18 -33 -12 -50 9 -23 43 -30 54 -11 4 5 14 9
22 7 13 -2 15 -19 14 -100 -2 -85 0 -98 14 -98 15 0 16 15 14 128 -1 70 -4
131 -7 135 -2 4 -11 2 -19 -5 -12 -10 -17 -9 -28 5 -17 24 -28 21 -52 -11z"/>
<path d="M475 6998 c-3 -7 -4 -997 -3 -2200 l3 -2187 -22 -10 c-26 -12 -30
-43 -8 -65 20 -19 19 -23 -5 -29 -49 -13 -11 -24 86 -25 58 -1 110 -5 115 -8
15 -9 49 6 49 22 0 11 -19 14 -95 14 l-95 0 6 28 c4 15 11 32 16 39 6 7 4 14
-7 20 -14 8 -15 220 -15 2205 0 1474 -3 2199 -10 2203 -6 3 -12 0 -15 -7z"/>
<path d="M204 5705 c-14 -14 -24 -31 -21 -38 6 -18 42 -20 57 -2 13 16 110 22
110 7 0 -5 12 -14 27 -21 27 -12 42 -3 43 26 0 26 -66 53 -129 53 -53 0 -66
-4 -87 -25z"/>
<path d="M185 5596 c-18 -13 -18 -14 3 -25 28 -15 57 -14 71 2 25 31 -37 50
-74 23z"/>
<path d="M187 5537 c-17 -12 -17 -14 -4 -26 24 -19 72 -10 72 14 0 25 -41 32
-68 12z"/>
<path d="M315 5471 c-6 -5 -21 -11 -34 -13 -39 -5 -36 -25 8 -52 22 -15 43
-26 46 -26 2 0 11 14 20 30 23 45 -8 92 -40 61z"/>
<path d="M195 5409 c-10 -16 25 -49 52 -49 12 0 23 -4 23 -9 0 -16 -27 -31
-45 -25 -20 8 -35 -11 -35 -46 0 -39 19 -54 43 -32 15 12 21 14 24 5 7 -19 43
-16 50 3 3 9 1 26 -6 37 -16 25 0 44 19 22 13 -15 60 -21 60 -7 -1 20 -51 62
-75 62 -14 0 -25 5 -25 10 0 6 -9 10 -20 10 -11 0 -23 7 -26 15 -7 17 -30 20
-39 4z"/>
<path d="M197 5123 c-4 -3 -7 -33 -7 -65 0 -45 4 -60 16 -65 19 -7 36 15 28
39 -9 31 18 31 62 -1 47 -32 68 -38 79 -21 9 15 -22 60 -40 60 -8 0 -15 5 -15
10 0 6 -6 10 -14 10 -7 0 -25 9 -39 20 -25 20 -58 26 -70 13z"/>
<path d="M320 4939 c-10 -17 -20 -20 -61 -18 -60 3 -77 -10 -61 -46 13 -28 37
-32 66 -10 25 19 28 19 56 -5 34 -30 58 -12 54 41 -4 57 -33 77 -54 38z"/>
<path d="M371 4779 c-29 -24 -102 -25 -141 -3 -39 23 -63 13 -47 -20 14 -29
70 -56 117 -56 73 0 141 54 107 87 -9 9 -17 7 -36 -8z"/>
<path d="M305 4603 c-11 -2 -30 -6 -42 -9 -34 -7 -48 -40 -29 -69 10 -15 12
-26 6 -30 -14 -8 -13 -88 1 -102 8 -8 7 -17 -5 -34 -22 -32 -20 -61 7 -92 33
-39 88 -38 116 2 25 35 26 58 4 83 -14 16 -15 22 -4 40 17 27 6 36 -47 40 -53
4 -56 22 -3 26 79 6 77 58 -2 64 -57 4 -53 22 6 26 54 4 73 26 42 48 -10 8
-21 13 -24 13 -3 -1 -15 -3 -26 -6z m15 -269 c0 -41 -2 -45 -22 -42 -19 2 -24
10 -26 46 -3 39 -1 42 22 42 24 0 26 -3 26 -46z"/>
<path d="M202 4138 c-13 -13 -16 -68 -6 -105 5 -18 14 -23 38 -23 39 0 56 15
56 51 0 15 4 30 9 34 15 9 30 -27 24 -58 -4 -21 -2 -27 12 -27 22 0 44 28 45
56 0 25 -51 84 -72 84 -22 -1 -46 -24 -50 -50 -4 -35 -22 -31 -26 5 -4 37 -14
49 -30 33z"/>
<path d="M285 3970 c-4 -6 -23 -7 -45 -4 -32 5 -39 3 -44 -13 -7 -22 1 -53 15
-53 4 0 25 -16 46 -35 48 -45 68 -42 68 9 0 31 4 40 23 47 28 11 28 24 0 43
-26 18 -54 21 -63 6z m3 -62 c-6 -18 -28 -21 -28 -4 0 9 7 16 16 16 9 0 14 -5
12 -12z"/>
</g>
</svg>
